<svg version="1.1" id="Layer_1" xmlns="http://www.w3.org/2000/svg" xmlns:xlink="http://www.w3.org/1999/xlink" x="0px" y="0px"
	 width="100%" viewBox="0 0 180 180" enable-background="new 0 0 180 180" xml:space="preserve">
<path fill="#E92C6B" opacity="1.000000" stroke="none" 
	d="
M116.000000,181.000000 
	C77.333336,181.000000 39.166672,181.000000 1.000005,181.000000 
	C1.000003,121.000008 1.000003,61.000011 1.000002,1.000013 
	C60.999989,1.000009 120.999977,1.000009 180.999969,1.000004 
	C180.999985,60.999985 180.999985,120.999969 181.000000,180.999969 
	C159.500000,181.000000 138.000000,181.000000 116.000000,181.000000 
M66.047333,47.792225 
	C64.409836,48.484074 62.772346,49.175922 61.496967,49.714779 
	C60.293129,49.040638 59.181343,47.873192 58.115704,47.913895 
	C53.008751,48.108959 47.790337,48.075146 42.846752,49.177532 
	C36.663479,50.556355 35.084148,56.879322 39.133190,61.956253 
	C41.147308,64.481674 41.708694,66.940338 41.145420,70.456009 
	C40.133121,76.774239 35.504391,82.997627 40.355564,90.106430 
	C34.648293,89.388039 33.541264,92.577812 32.807625,96.816589 
	C31.304331,105.502289 29.290846,114.098740 27.595037,122.753021 
	C27.326399,124.123993 27.132336,125.864975 27.733883,126.991722 
	C30.949841,133.015442 36.720581,131.977753 42.030670,131.570023 
	C46.621315,131.217499 45.258160,126.895096 46.351185,124.223969 
	C46.762257,123.219406 47.194305,122.223419 47.821564,120.738892 
	C49.034439,121.899910 50.053825,122.527390 50.584274,123.439293 
	C54.384209,129.971893 59.689091,132.897873 67.464073,131.838135 
	C71.396088,131.302185 74.193581,131.094299 70.655518,125.136856 
	C83.281357,134.130768 94.922386,134.361313 105.406433,128.339661 
	C110.634079,129.636627 114.747635,131.221924 118.963120,131.568954 
	C125.084602,132.072891 131.284775,131.819824 137.440094,131.588593 
	C139.212524,131.522003 142.154800,130.782471 142.471573,129.725433 
	C143.434372,126.512527 144.898529,121.931793 143.414383,119.803612 
	C139.749390,114.548195 142.319901,110.146294 144.281799,106.223595 
	C147.066391,100.655922 147.639969,96.959656 143.436707,92.561859 
	C142.010422,91.069565 139.861328,90.268127 137.765762,88.981003 
	C139.731049,85.408234 141.874710,81.853363 143.689178,78.137733 
	C146.953690,71.452782 150.562515,64.860664 153.003662,57.872135 
	C155.057709,51.991852 151.250961,47.819618 145.001175,47.793030 
	C139.004211,47.767521 132.997589,47.580677 127.012703,47.851337 
	C121.400955,48.105125 115.869095,48.639038 110.197533,47.907471 
	C105.283386,47.273602 100.205917,47.583580 95.228447,47.905872 
	C92.917679,48.055492 90.672935,49.224709 89.297150,49.652321 
	C85.271065,48.951752 81.863007,48.096169 78.409348,47.828171 
	C74.601585,47.532688 70.751968,47.776608 66.047333,47.792225 
z"/>
<path fill="#2B1D37" opacity="1.000000" stroke="none" 
	d="
M66.483955,47.788895 
	C70.751968,47.776608 74.601585,47.532688 78.409348,47.828171 
	C81.863007,48.096169 85.271065,48.951752 89.297150,49.652321 
	C90.672935,49.224709 92.917679,48.055492 95.228447,47.905872 
	C100.205917,47.583580 105.283386,47.273602 110.197533,47.907471 
	C115.869095,48.639038 121.400955,48.105125 127.012703,47.851337 
	C132.997589,47.580677 139.004211,47.767521 145.001175,47.793030 
	C151.250961,47.819618 155.057709,51.991852 153.003662,57.872135 
	C150.562515,64.860664 146.953690,71.452782 143.689178,78.137733 
	C141.874710,81.853363 139.731049,85.408234 137.765762,88.981003 
	C139.861328,90.268127 142.010422,91.069565 143.436707,92.561859 
	C147.639969,96.959656 147.066391,100.655922 144.281799,106.223595 
	C142.319901,110.146294 139.749390,114.548195 143.414383,119.803612 
	C144.898529,121.931793 143.434372,126.512527 142.471573,129.725433 
	C142.154800,130.782471 139.212524,131.522003 137.440094,131.588593 
	C131.284775,131.819824 125.084602,132.072891 118.963120,131.568954 
	C114.747635,131.221924 110.634079,129.636627 105.406433,128.339661 
	C94.922386,134.361313 83.281357,134.130768 70.655518,125.136856 
	C74.193581,131.094299 71.396088,131.302185 67.464073,131.838135 
	C59.689091,132.897873 54.384209,129.971893 50.584274,123.439293 
	C50.053825,122.527390 49.034439,121.899910 47.821564,120.738892 
	C47.194305,122.223419 46.762257,123.219406 46.351185,124.223969 
	C45.258160,126.895096 46.621315,131.217499 42.030670,131.570023 
	C36.720581,131.977753 30.949841,133.015442 27.733883,126.991722 
	C27.132336,125.864975 27.326399,124.123993 27.595037,122.753021 
	C29.290846,114.098740 31.304331,105.502289 32.807625,96.816589 
	C33.541264,92.577812 34.648293,89.388039 40.355564,90.106430 
	C35.504391,82.997627 40.133121,76.774239 41.145420,70.456009 
	C41.708694,66.940338 41.147308,64.481674 39.133190,61.956253 
	C35.084148,56.879322 36.663479,50.556355 42.846752,49.177532 
	C47.790337,48.075146 53.008751,48.108959 58.115704,47.913895 
	C59.181343,47.873192 60.293129,49.040638 61.496967,49.714779 
	C62.772346,49.175922 64.409836,48.484074 66.483955,47.788895 
M83.833923,74.305290 
	C83.593605,73.158836 83.353279,72.012383 82.837143,70.306183 
	C81.870605,69.549316 80.904076,68.792442 79.901337,67.401154 
	C79.956261,66.981163 80.011177,66.561172 80.753098,65.992027 
	C82.533325,63.684380 84.313545,61.376736 86.461105,58.463345 
	C86.281059,56.709248 86.101021,54.955154 85.581856,52.636971 
	C84.921829,52.057301 84.261795,51.477631 83.088951,50.283009 
	C78.491386,50.193069 73.894127,50.054546 69.296181,50.025810 
	C63.870167,49.991898 63.869911,50.033066 63.669823,56.765316 
	C65.026512,57.392601 66.348946,58.113144 67.747406,58.626678 
	C70.234161,59.539852 73.799133,56.836758 75.090919,61.636738 
	C75.030174,62.413872 74.969437,63.191002 74.046837,64.011597 
	C72.079514,64.017906 70.039658,63.714970 68.173515,64.152687 
	C67.141739,64.394684 66.401001,65.877495 65.009186,67.418251 
	C64.607620,69.958168 65.160446,71.537971 68.267746,71.335960 
	C69.841240,71.233673 71.456360,71.771782 73.202896,72.597466 
	C73.524498,73.094528 73.846092,73.591583 73.916962,74.526558 
	C73.738571,75.247673 73.560188,75.968788 72.640579,76.862900 
	C68.861725,77.157593 65.086044,77.615738 61.302887,77.689339 
	C58.793030,77.738174 57.483170,78.395287 57.610271,81.747704 
	C56.447803,84.030289 57.067127,85.166862 59.708797,85.145035 
	C64.194473,85.107956 68.708633,85.427513 73.155479,85.009033 
	C75.594887,84.779472 77.921082,83.346962 80.871956,82.174644 
	C81.301933,81.470497 81.731911,80.766357 82.646255,79.607513 
	C82.960709,78.077606 83.275162,76.547699 83.833923,74.305290 
M51.551479,80.541054 
	C51.653492,79.693504 51.755508,78.845947 52.093128,77.307320 
	C52.361500,75.893227 52.629871,74.479141 53.229465,72.392647 
	C53.485275,70.928085 53.741089,69.463524 54.309544,67.311447 
	C54.587658,65.563797 54.865776,63.816139 55.472404,61.479660 
	C55.839607,59.964600 56.206806,58.449539 56.823593,56.159416 
	C57.096832,54.549118 57.370071,52.938820 57.644882,51.319286 
	C44.893105,49.934322 40.952114,51.459938 39.532181,58.560310 
	C41.577385,58.456684 43.539917,58.357250 45.607403,58.965630 
	C45.789860,59.658211 45.972317,60.350796 46.018684,61.625187 
	C45.699211,63.087925 45.379738,64.550667 44.737804,66.727219 
	C44.532539,68.501808 44.327274,70.276405 43.826477,72.670593 
	C43.264713,74.135818 42.702953,75.601044 41.982677,77.857330 
	C42.033344,78.933304 42.084011,80.009285 41.763935,81.713562 
	C40.257854,85.437263 43.190292,84.990608 45.131371,85.090485 
	C48.030262,85.239647 51.523010,85.926247 51.551479,80.541054 
M136.136230,105.005615 
	C130.037903,104.767181 123.939568,104.528755 117.613449,103.846741 
	C117.441780,103.558311 117.322029,103.249733 117.666626,102.342064 
	C119.412476,101.671875 121.123344,100.565140 122.911423,100.421852 
	C126.703117,100.117989 130.573700,99.971764 134.340836,100.394531 
	C139.199173,100.939751 140.646652,98.864822 139.954834,94.455872 
	C139.954834,94.455872 139.934845,94.510277 140.164169,93.536224 
	C130.020554,93.390434 119.876945,93.244652 109.733337,93.098862 
	C109.797440,93.452805 109.861542,93.806747 109.652176,94.732918 
	C109.391624,95.480156 109.131065,96.227402 108.492073,97.640923 
	C108.293907,99.159447 108.095741,100.677971 107.663231,102.928658 
	C107.152138,105.638062 106.641037,108.347473 105.986053,111.786987 
	C106.045197,112.529892 106.104340,113.272804 105.796936,114.718872 
	C103.983261,117.831299 104.328468,120.579926 107.490013,123.499062 
	C108.593651,124.106888 109.697289,124.714722 111.421356,125.663628 
	C112.345421,125.611145 113.269485,125.558670 114.993645,125.497612 
	C116.594269,125.502563 118.194901,125.507515 120.709816,125.770790 
	C123.536293,125.684349 126.362778,125.597900 129.841965,125.500839 
	C130.494720,125.503296 131.147476,125.505753 132.384293,125.737518 
	C132.991287,125.648201 133.598282,125.558884 134.969574,125.428520 
	C138.017014,124.134018 138.214203,121.881401 136.139725,118.969101 
	C130.717331,118.942017 125.294495,118.862503 119.872734,118.908920 
	C116.954620,118.933907 115.139053,117.892967 115.112030,114.343765 
	C115.112030,114.343765 114.927048,113.975327 115.197632,113.220772 
	C120.239021,112.873375 125.291512,112.145058 130.318497,112.291611 
	C134.847382,112.423645 136.878418,110.968040 136.425766,106.113907 
	C136.425766,106.113907 136.311798,105.823318 136.136230,105.005615 
M129.208572,72.220001 
	C128.603729,73.428627 127.998894,74.637253 126.913734,76.296486 
	C126.068085,77.868683 125.222435,79.440880 123.991531,81.498100 
	C123.405510,82.516838 122.819489,83.535576 121.921562,85.096527 
	C124.648270,85.096527 126.590065,85.085442 128.531693,85.098953 
	C132.066360,85.123550 133.280319,83.436157 132.930832,80.062714 
	C133.966415,78.726326 135.001984,77.389946 136.542297,75.639717 
	C137.009811,74.444077 137.477341,73.248444 138.211029,71.578346 
	C138.524536,71.140656 138.838043,70.702965 139.635666,69.792450 
	C140.423813,68.202011 141.211945,66.611565 142.500183,64.570137 
	C143.676346,62.388317 144.852524,60.206501 146.409042,57.378620 
	C146.738052,55.379234 147.067078,53.379852 147.684998,50.668816 
	C140.767090,50.453960 133.825104,50.520241 126.939240,49.930962 
	C121.873970,49.497486 120.325333,51.594353 120.532486,56.751347 
	C121.481537,57.370594 122.393608,58.449249 123.386093,58.529148 
	C127.566597,58.865707 131.771103,58.904194 135.833389,59.719364 
	C135.508789,60.790630 135.184189,61.861900 134.297729,63.271202 
	C133.769135,64.459648 133.240540,65.648094 132.169022,67.218117 
	C131.379761,68.764114 130.590500,70.310120 129.208572,72.220001 
M95.652618,103.746887 
	C99.095818,103.508392 104.087509,105.888046 103.893791,98.312965 
	C103.908524,97.800751 103.923248,97.288536 104.150589,96.144409 
	C103.420059,95.495415 102.689529,94.846413 101.188271,94.019112 
	C94.357117,92.560844 87.566689,92.072159 80.256470,94.961189 
	C79.115791,95.567390 77.975113,96.173599 76.262161,97.151566 
	C75.196404,98.814293 74.130638,100.477020 72.736160,102.783997 
	C72.160896,104.566269 71.585632,106.348534 70.796700,108.909485 
	C70.928024,110.265381 71.059349,111.621277 71.042427,113.837234 
	C71.079422,115.285660 71.116417,116.734085 71.355110,118.818108 
	C74.219696,121.032684 76.803978,124.396988 80.017471,125.180450 
	C84.358002,126.238686 89.182770,125.338547 93.798691,125.232086 
	C99.051071,125.110939 100.852356,122.200401 100.293091,116.599800 
	C96.307472,117.092239 92.440926,117.072502 88.908600,118.149223 
	C85.517426,119.182907 83.328423,118.235497 80.843094,115.292610 
	C80.499641,114.188934 80.156189,113.085266 79.931221,111.175552 
	C79.913857,110.085510 79.896492,108.995461 80.114876,107.280060 
	C81.005356,105.780197 81.895836,104.280334 83.418823,102.434059 
	C85.983391,101.630424 88.547958,100.826790 91.667099,100.317886 
	C92.461075,100.589653 93.255058,100.861412 93.993935,101.666862 
	C94.266983,102.256950 94.540024,102.847038 95.652618,103.746887 
M34.019718,105.819824 
	C33.717957,107.226059 33.416191,108.632301 33.043015,110.702995 
	C33.086739,111.145500 33.130463,111.588013 32.864288,112.647110 
	C32.891880,113.800995 32.919468,114.954880 32.710537,116.759277 
	C32.058235,119.305824 31.405931,121.852364 30.729477,124.944954 
	C37.841122,126.767456 39.636314,125.980972 40.284698,120.206703 
	C40.516876,118.800766 40.749050,117.394829 41.007236,116.004509 
	C41.007236,116.004509 41.001633,115.974457 41.481823,115.704575 
	C41.773754,115.479195 42.065689,115.253815 43.118919,115.152779 
	C45.730614,116.123756 48.342312,117.094734 51.022915,118.762924 
	C52.332821,120.529037 53.642727,122.295151 55.287212,124.747772 
	C58.423862,125.106918 61.560513,125.466064 64.697166,125.825211 
	C64.860680,125.414299 65.024200,125.003380 65.187714,124.592468 
	C64.206886,123.402863 63.226055,122.213249 62.024086,120.369652 
	C60.961643,118.931732 59.899197,117.493813 58.888111,115.368515 
	C59.895367,114.264717 60.902622,113.160919 62.067196,112.059906 
	C62.067196,112.059906 62.083611,111.903419 62.523823,111.842995 
	C62.818764,111.701347 62.977211,111.467316 63.581898,110.827148 
	C63.986279,110.078873 64.390656,109.330589 65.090721,107.894951 
	C65.408386,106.102524 65.726044,104.310097 66.316231,101.824234 
	C65.881195,100.221367 65.446152,98.618492 64.894302,96.329819 
	C63.884861,95.480324 62.875420,94.630821 61.629993,93.745461 
	C61.629993,93.745461 61.585579,93.979980 60.946571,93.303337 
	C54.011364,93.128883 47.069572,93.083328 40.143501,92.729858 
	C36.215855,92.529411 34.648811,94.065178 34.987179,98.727837 
	C35.010738,99.835205 35.034302,100.942566 34.829807,102.689453 
	C34.585129,103.482887 34.340446,104.276329 34.019718,105.819824 
M116.775635,60.547371 
	C117.037804,59.075706 117.299973,57.604042 117.703857,55.549381 
	C116.778419,54.279533 115.852982,53.009682 114.676270,51.018124 
	C113.156143,50.688263 111.622047,50.024418 110.118340,50.087284 
	C104.127831,50.337730 98.146782,50.814606 91.898743,51.224949 
	C91.683983,52.660034 91.418259,54.435638 90.965286,57.004238 
	C91.733749,57.542263 92.475937,58.494297 93.275330,58.545033 
	C96.363533,58.741016 99.493042,58.436329 102.558479,58.768051 
	C103.813316,58.903839 104.944359,60.183685 105.966805,61.598026 
	C105.932846,62.044655 105.898888,62.491283 105.164001,63.323524 
	C103.733871,63.556461 102.285004,64.064804 100.877235,63.969021 
	C97.137184,63.714558 95.728966,65.412552 95.796143,69.656715 
	C96.853218,70.181145 98.005722,71.282478 98.950218,71.126251 
	C102.338020,70.565903 104.045143,72.065231 104.868309,75.611313 
	C104.786842,75.960747 104.705376,76.310188 103.811356,76.595802 
	C99.472565,76.993904 95.135986,77.666847 90.794281,77.701675 
	C87.422409,77.728729 86.402199,79.004036 86.763626,82.742676 
	C87.711586,83.529854 88.632675,84.956795 89.611969,84.997932 
	C95.017860,85.225014 100.451279,85.331535 105.845963,85.001144 
	C107.738052,84.885269 109.546959,83.411331 111.970192,82.195221 
	C112.610786,80.797791 113.251389,79.400360 114.172226,77.437248 
	C114.351059,76.621208 114.529892,75.805161 114.901634,74.243523 
	C115.183495,70.710243 113.464699,68.705826 110.050972,67.336533 
	C110.099480,66.923523 110.147987,66.510513 110.903473,66.070724 
	C112.716965,64.431702 114.530457,62.792675 116.775635,60.547371 
M89.235962,115.215752 
	C92.745453,114.701515 96.281166,114.315567 99.750778,113.606285 
	C101.036011,113.343544 102.165993,112.321404 104.038429,111.267563 
	C100.003136,109.962318 96.917465,109.762520 95.020905,108.157578 
	C92.390831,105.931892 90.297966,106.381355 88.655922,108.406395 
	C87.067162,110.365753 85.243698,113.007530 89.235962,115.215752 
M127.967209,65.005264 
	C122.753479,63.500824 121.209251,67.553291 119.084839,70.932106 
	C119.942017,72.918312 120.822388,74.958267 121.702759,76.998222 
	C122.152878,77.128403 122.603004,77.258583 123.053123,77.388763 
	C124.935417,73.370628 126.817719,69.352501 127.967209,65.005264 
M75.442802,93.919250 
	C75.417175,93.217781 75.410217,91.903694 75.363266,91.902267 
	C72.196114,91.805763 69.025757,91.814835 64.829895,91.814835 
	C67.365379,94.785118 69.001038,96.701263 70.528770,98.490974 
	C72.491470,96.646309 73.694023,95.516075 75.442802,93.919250 
M93.249374,66.612495 
	C90.084846,64.498680 90.806709,68.314163 89.624481,69.169418 
	C88.949066,69.658043 88.602028,71.568321 89.019897,72.351463 
	C89.523506,73.295303 90.995316,73.722527 92.327118,74.545959 
	C92.662979,71.566582 92.900566,69.459023 93.249374,66.612495 
z"/>
<path fill="#EE4776" opacity="1.000000" stroke="none" 
	d="
M81.227211,115.914444 
	C83.328423,118.235497 85.517426,119.182907 88.908600,118.149223 
	C92.440926,117.072502 96.307472,117.092239 100.293091,116.599800 
	C100.852356,122.200401 99.051071,125.110939 93.798691,125.232086 
	C89.182770,125.338547 84.358002,126.238686 80.017471,125.180450 
	C76.803978,124.396988 74.219696,121.032684 71.629623,118.368317 
	C75.011833,117.250488 78.119522,116.582466 81.227211,115.914444 
z"/>
<path fill="#57B5A1" opacity="1.000000" stroke="none" 
	d="
M147.396103,51.380470 
	C147.067078,53.379852 146.738052,55.379234 145.850525,57.615910 
	C142.183609,58.252716 139.075211,58.652229 135.966827,59.051743 
	C131.771103,58.904194 127.566597,58.865707 123.386093,58.529148 
	C122.393608,58.449249 121.481537,57.370594 121.019279,56.252342 
	C122.373184,52.344517 124.491356,51.122616 128.039627,51.265804 
	C134.482834,51.525810 140.943008,51.365406 147.396103,51.380470 
z"/>
<path fill="#50B3A0" opacity="1.000000" stroke="none" 
	d="
M114.927544,51.739830 
	C115.852982,53.009682 116.778419,54.279533 117.182663,55.823151 
	C112.930458,56.679493 108.205933,55.242828 106.751526,60.893623 
	C106.545418,60.915859 106.131714,60.943077 106.131714,60.943077 
	C104.944359,60.183685 103.813316,58.903839 102.558479,58.768051 
	C99.493042,58.436329 96.363533,58.741016 93.275330,58.545033 
	C92.475937,58.494297 91.733749,57.542263 91.374527,56.419842 
	C93.269234,52.859837 95.572998,51.808804 98.960762,51.945004 
	C104.271690,52.158535 109.604187,51.835571 114.927544,51.739830 
z"/>
<path fill="#F33C77" opacity="1.000000" stroke="none" 
	d="
M110.800926,125.322556 
	C109.697289,124.714722 108.593651,124.106888 107.317001,122.895004 
	C107.152168,121.881721 107.160339,121.472481 107.626434,121.049690 
	C115.813759,121.024925 123.546440,121.132599 131.270279,120.919502 
	C133.218277,120.865753 135.137970,119.786232 137.070679,119.178093 
	C138.214203,121.881401 138.017014,124.134018 134.296173,125.327438 
	C133.015244,125.320312 132.407745,125.414268 131.800232,125.508209 
	C131.147476,125.505753 130.494720,125.503296 129.147812,125.359375 
	C125.567612,125.316086 122.681572,125.414276 119.795525,125.512459 
	C118.194901,125.507515 116.594269,125.502563 114.275017,125.359512 
	C112.637901,125.255119 111.719414,125.288834 110.800926,125.322556 
z"/>
<path fill="#ABB385" opacity="1.000000" stroke="none" 
	d="
M107.897568,102.196495 
	C108.095741,100.677971 108.293907,99.159447 109.158386,97.326645 
	C117.889557,97.014336 125.960197,97.182564 134.015198,96.901871 
	C136.039215,96.831345 138.013077,95.321175 140.009979,94.472610 
	C140.646652,98.864822 139.199173,100.939751 134.340836,100.394531 
	C130.573700,99.971764 126.703117,100.117989 122.911423,100.421852 
	C121.123344,100.565140 119.412476,101.671875 117.092163,102.435318 
	C113.644325,102.417885 110.770950,102.307190 107.897568,102.196495 
z"/>
<path fill="#B3BA81" opacity="1.000000" stroke="none" 
	d="
M35.057861,102.049934 
	C35.034302,100.942566 35.010738,99.835205 35.305149,98.253151 
	C35.623119,97.778465 36.030243,97.753006 36.030243,97.753006 
	C36.030243,97.753006 36.432503,97.820541 36.935207,97.864059 
	C39.915653,97.948029 42.398155,98.106255 44.870213,98.006233 
	C51.586212,97.734497 58.297783,97.353386 65.011108,97.015625 
	C65.446152,98.618492 65.881195,100.221367 65.736374,102.270378 
	C62.446423,102.871056 59.736336,103.025589 56.844425,102.836746 
	C53.759811,99.572945 48.229149,99.277512 43.626595,101.844292 
	C40.468575,101.928238 37.763218,101.989090 35.057861,102.049934 
z"/>
<path fill="#F38070" opacity="1.000000" stroke="none" 
	d="
M61.909874,112.057121 
	C60.902622,113.160919 59.895367,114.264717 58.445892,115.695435 
	C55.653786,116.703468 53.303898,117.384590 50.954006,118.065720 
	C48.342312,117.094734 45.730614,116.123756 42.460846,115.172699 
	C41.535728,115.453239 41.268681,115.713852 41.001633,115.974457 
	C41.001633,115.974457 41.007236,116.004509 40.547768,115.979263 
	C37.707890,116.005600 35.327473,116.057182 32.947060,116.108765 
	C32.919468,114.954880 32.891880,113.800995 33.476776,112.336449 
	C43.362801,112.036232 52.636337,112.046677 61.909874,112.057121 
z"/>
<path fill="#59BDA4" opacity="1.000000" stroke="none" 
	d="
M45.502453,58.257816 
	C43.539917,58.357250 41.577385,58.456684 39.532181,58.560310 
	C40.952114,51.459938 44.893105,49.934322 57.644882,51.319286 
	C57.370071,52.938820 57.096832,54.549118 56.273926,56.559349 
	C52.316990,57.392128 48.909721,57.824970 45.502453,58.257816 
z"/>
<path fill="#5BBFA2" opacity="1.000000" stroke="none" 
	d="
M83.601768,50.897961 
	C84.261795,51.477631 84.921829,52.057301 85.547302,53.218399 
	C78.633438,54.520699 71.754120,55.241566 64.912521,55.571602 
	C65.097984,52.321579 66.698959,51.280212 69.447098,51.266541 
	C74.165817,51.243069 78.883598,51.030910 83.601768,50.897961 
z"/>
<path fill="#D72864" opacity="1.000000" stroke="none" 
	d="
M88.853851,115.310623 
	C85.243698,113.007530 87.067162,110.365753 88.655922,108.406395 
	C90.297966,106.381355 92.390831,105.931892 95.020905,108.157578 
	C96.917465,109.762520 100.003136,109.962318 104.038429,111.267563 
	C102.165993,112.321404 101.036011,113.343544 99.750778,113.606285 
	C96.281166,114.315567 92.745453,114.701515 88.853851,115.310623 
z"/>
<path fill="#7EBB90" opacity="1.000000" stroke="none" 
	d="
M139.982407,94.464241 
	C138.013077,95.321175 136.039215,96.831345 134.015198,96.901871 
	C125.960197,97.182564 117.889557,97.014336 109.347610,96.993500 
	C109.131065,96.227402 109.391624,95.480156 110.258469,94.406998 
	C120.554787,94.224144 130.244812,94.367210 139.934845,94.510277 
	C139.934845,94.510277 139.954834,94.455872 139.982407,94.464241 
z"/>
<path fill="#A864AA" opacity="1.000000" stroke="none" 
	d="
M113.891983,78.002930 
	C113.251389,79.400360 112.610786,80.797791 111.330872,82.114548 
	C102.816399,82.052895 94.941246,82.071907 87.066086,82.090927 
	C86.402199,79.004036 87.422409,77.728729 90.794281,77.701675 
	C95.135986,77.666847 99.472565,76.993904 104.583488,76.851501 
	C108.201073,77.405777 111.046532,77.704353 113.891983,78.002930 
z"/>
<path fill="#B5529F" opacity="1.000000" stroke="none" 
	d="
M86.914856,82.416801 
	C94.941246,82.071907 102.816399,82.052895 111.042709,82.295700 
	C109.546959,83.411331 107.738052,84.885269 105.845963,85.001144 
	C100.451279,85.331535 95.017860,85.225014 89.611969,84.997932 
	C88.632675,84.956795 87.711586,83.529854 86.914856,82.416801 
z"/>
<path fill="#B552A0" opacity="1.000000" stroke="none" 
	d="
M80.298325,82.456863 
	C77.921082,83.346962 75.594887,84.779472 73.155479,85.009033 
	C68.708633,85.427513 64.194473,85.107956 59.708797,85.145035 
	C57.067127,85.166862 56.447803,84.030289 58.307678,81.403442 
	C61.461555,81.040855 63.931129,80.852493 66.371681,81.040642 
	C71.022652,81.399193 75.657043,81.972633 80.298325,82.456863 
z"/>
<path fill="#B3B483" opacity="1.000000" stroke="none" 
	d="
M73.064873,102.139748 
	C74.130638,100.477020 75.196404,98.814293 76.913773,97.190033 
	C86.356255,97.077774 95.147118,96.927048 103.937981,96.776321 
	C103.923248,97.288536 103.908524,97.800751 103.404427,98.841141 
	C98.980888,99.587257 95.046707,99.805206 91.112534,100.023163 
	C88.547958,100.826790 85.983391,101.630424 82.762688,102.430992 
	C79.092659,102.331863 76.078766,102.235802 73.064873,102.139748 
z"/>
<path fill="#4DA9A0" opacity="1.000000" stroke="none" 
	d="
M64.874809,55.962433 
	C71.754120,55.241566 78.633438,54.520699 85.716858,53.500443 
	C86.101021,54.955154 86.281059,56.709248 85.841934,58.745361 
	C81.935059,59.651642 78.647346,60.275909 75.359634,60.900177 
	C73.799133,56.836758 70.234161,59.539852 67.747406,58.626678 
	C66.348946,58.113144 65.026512,57.392601 64.028671,56.397087 
	C64.387520,56.028858 64.874809,55.962433 64.874809,55.962433 
z"/>
<path fill="#7787B4" opacity="1.000000" stroke="none" 
	d="
M104.903404,75.076447 
	C104.045143,72.065231 102.338020,70.565903 98.950218,71.126251 
	C98.005722,71.282478 96.853218,70.181145 96.424301,69.320816 
	C101.401482,68.643127 105.750511,68.301338 110.099533,67.959549 
	C113.464699,68.705826 115.183495,70.710243 114.367180,74.612686 
	C110.856285,75.013382 107.879845,75.044914 104.903404,75.076447 
z"/>
<path fill="#F5986E" opacity="1.000000" stroke="none" 
	d="
M61.988537,112.058517 
	C52.636337,112.046677 43.362801,112.036232 33.631721,112.028152 
	C33.130463,111.588013 33.086739,111.145500 33.484283,110.357620 
	C37.008961,109.261742 40.092369,108.511230 43.393860,107.893730 
	C43.747192,108.332901 43.882442,108.639061 44.361809,109.148788 
	C48.174217,108.927094 51.642498,108.501831 55.259163,107.997391 
	C55.407539,107.918198 55.743870,107.912918 56.095665,108.122238 
	C59.229988,108.415138 62.012512,108.498726 64.795036,108.582314 
	C64.390656,109.330589 63.986279,110.078873 63.101162,111.058197 
	C62.378227,111.438629 62.199287,111.643349 62.083611,111.903419 
	C62.083611,111.903419 62.067196,112.059906 61.988537,112.058517 
z"/>
<path fill="#F65775" opacity="1.000000" stroke="none" 
	d="
M136.605194,119.073593 
	C135.137970,119.786232 133.218277,120.865753 131.270279,120.919502 
	C123.546440,121.132599 115.813759,121.024925 107.633087,120.684242 
	C109.803955,118.469948 112.426079,116.607552 115.048210,114.745148 
	C115.139053,117.892967 116.954620,118.933907 119.872734,118.908920 
	C125.294495,118.862503 130.717331,118.942017 136.605194,119.073593 
z"/>
<path fill="#A964AB" opacity="1.000000" stroke="none" 
	d="
M80.585144,82.315750 
	C75.657043,81.972633 71.022652,81.399193 66.371681,81.040642 
	C63.931129,80.852493 61.461555,81.040855 58.541733,81.088303 
	C57.483170,78.395287 58.793030,77.738174 61.302887,77.689339 
	C65.086044,77.615738 68.861725,77.157593 73.383835,76.975204 
	C76.805359,78.079079 79.483627,79.070648 82.161888,80.062218 
	C81.731911,80.766357 81.301933,81.470497 80.585144,82.315750 
z"/>
<path fill="#DE2866" opacity="1.000000" stroke="none" 
	d="
M128.333618,65.169815 
	C126.817719,69.352501 124.935417,73.370628 123.053123,77.388763 
	C122.603004,77.258583 122.152878,77.128403 121.702759,76.998222 
	C120.822388,74.958267 119.942017,72.918312 119.084839,70.932106 
	C121.209251,67.553291 122.753479,63.500824 128.333618,65.169815 
z"/>
<path fill="#6799BC" opacity="1.000000" stroke="none" 
	d="
M110.075256,67.648041 
	C105.750511,68.301338 101.401482,68.643127 96.599030,68.975540 
	C95.728966,65.412552 97.137184,63.714558 100.877235,63.969021 
	C102.285004,64.064804 103.733871,63.556461 105.761780,63.366611 
	C107.638542,64.305634 108.917519,65.201569 110.196487,66.097504 
	C110.147987,66.510513 110.099480,66.923523 110.075256,67.648041 
z"/>
<path fill="#EBB975" opacity="1.000000" stroke="none" 
	d="
M107.780396,102.562576 
	C110.770950,102.307190 113.644325,102.417885 116.885941,102.724792 
	C117.322029,103.249733 117.441780,103.558311 117.771164,104.344856 
	C118.016487,105.204178 118.104111,105.565376 117.856270,106.127319 
	C115.784149,106.829971 113.947281,107.122719 112.339256,107.893127 
	C110.757263,108.651054 109.407417,109.893524 107.651077,110.940109 
	C106.940948,110.990173 106.535446,111.023521 106.129944,111.056877 
	C106.641037,108.347473 107.152138,105.638062 107.780396,102.562576 
z"/>
<path fill="#8CBB8B" opacity="1.000000" stroke="none" 
	d="
M64.952705,96.672714 
	C58.297783,97.353386 51.586212,97.734497 44.870213,98.006233 
	C42.398155,98.106255 39.915653,97.948029 37.042255,97.558289 
	C36.790237,96.802170 36.933872,96.395355 37.541260,95.995300 
	C44.290138,96.002472 50.581539,96.156914 56.856255,95.901527 
	C58.552116,95.832497 60.197449,94.521988 61.865974,93.781326 
	C62.875420,94.630821 63.884861,95.480324 64.952705,96.672714 
z"/>
<path fill="#5F9EB9" opacity="1.000000" stroke="none" 
	d="
M45.060265,66.013405 
	C45.379738,64.550667 45.699211,63.087925 46.500298,61.322815 
	C49.702568,61.369793 52.423229,61.719139 55.143890,62.068481 
	C54.865776,63.816139 54.587658,65.563797 53.730782,67.654663 
	C50.454773,67.336388 47.757519,66.674896 45.060265,66.013405 
z"/>
<path fill="#E6B675" opacity="1.000000" stroke="none" 
	d="
M72.900513,102.461868 
	C76.078766,102.235802 79.092659,102.331863 82.446434,102.604202 
	C81.895836,104.280334 81.005356,105.780197 79.555496,107.616760 
	C76.334198,108.012573 73.672279,108.071686 71.010368,108.130806 
	C71.585632,106.348534 72.160896,104.566269 72.900513,102.461868 
z"/>
<path fill="#6F8AB7" opacity="1.000000" stroke="none" 
	d="
M73.052666,72.020355 
	C71.456360,71.771782 69.841240,71.233673 68.267746,71.335960 
	C65.160446,71.537971 64.607620,69.958168 65.670006,67.269043 
	C70.866394,67.425087 75.401970,67.730331 79.937538,68.035576 
	C80.904076,68.792442 81.870605,69.549316 82.618591,70.791466 
	C79.284241,71.524620 76.168457,71.772484 73.052666,72.020355 
z"/>
<path fill="#8DBD8E" opacity="1.000000" stroke="none" 
	d="
M104.044281,96.460365 
	C95.147118,96.927048 86.356255,97.077774 77.199905,97.004150 
	C77.975113,96.173599 79.115791,95.567390 80.947243,95.131577 
	C86.994125,95.535339 92.350052,95.904205 97.706451,95.910995 
	C99.123245,95.912788 100.541443,94.798973 101.959000,94.197418 
	C102.689529,94.846413 103.420059,95.495415 104.044281,96.460365 
z"/>
<path fill="#6697BA" opacity="1.000000" stroke="none" 
	d="
M79.919434,67.718369 
	C75.401970,67.730331 70.866394,67.425087 65.929947,66.960403 
	C66.401001,65.877495 67.141739,64.394684 68.173515,64.152687 
	C70.039658,63.714970 72.079514,64.017906 74.826141,64.067825 
	C77.092331,64.796425 78.579208,65.468803 80.066093,66.141182 
	C80.011177,66.561172 79.956261,66.981163 79.919434,67.718369 
z"/>
<path fill="#57A7B5" opacity="1.000000" stroke="none" 
	d="
M135.900116,59.385551 
	C139.075211,58.652229 142.183609,58.252716 145.660339,57.938942 
	C144.852524,60.206501 143.676346,62.388317 141.898682,64.687325 
	C139.151321,64.180733 137.005447,63.556950 134.859589,62.933170 
	C135.184189,61.861900 135.508789,60.790630 135.900116,59.385551 
z"/>
<path fill="#EF5178" opacity="1.000000" stroke="none" 
	d="
M32.828796,116.434021 
	C35.327473,116.057182 37.707890,116.005600 40.534763,115.971451 
	C40.749050,117.394829 40.516876,118.800766 39.803940,120.731064 
	C36.466663,122.303253 33.610146,123.351082 30.753628,124.398911 
	C31.405931,121.852364 32.058235,119.305824 32.828796,116.434021 
z"/>
<path fill="#59A5B7" opacity="1.000000" stroke="none" 
	d="
M80.409592,66.066605 
	C78.579208,65.468803 77.092331,64.796425 75.257065,64.046089 
	C74.969437,63.191002 75.030174,62.413872 75.225281,61.268456 
	C78.647346,60.275909 81.935059,59.651642 85.658272,59.048233 
	C84.313545,61.376736 82.533325,63.684380 80.409592,66.066605 
z"/>
<path fill="#F66074" opacity="1.000000" stroke="none" 
	d="
M50.988461,118.414322 
	C53.303898,117.384590 55.653786,116.703468 58.420212,116.039124 
	C59.899197,117.493813 60.961643,118.931732 61.695564,120.696693 
	C58.855335,121.247375 55.715889,120.145401 54.952629,124.061264 
	C53.642727,122.295151 52.332821,120.529037 50.988461,118.414322 
z"/>
<path fill="#77BE95" opacity="1.000000" stroke="none" 
	d="
M101.573639,94.108261 
	C100.541443,94.798973 99.123245,95.912788 97.706451,95.910995 
	C92.350052,95.904205 86.994125,95.535339 81.276176,95.086334 
	C87.566689,92.072159 94.357117,92.560844 101.573639,94.108261 
z"/>
<path fill="#EFB775" opacity="1.000000" stroke="none" 
	d="
M64.942879,108.238632 
	C62.012512,108.498726 59.229988,108.415138 56.276356,107.794975 
	C56.412247,105.898972 56.719246,104.539551 57.026249,103.180122 
	C59.736336,103.025589 62.446423,102.871056 65.600105,102.617096 
	C65.726044,104.310097 65.408386,106.102524 64.942879,108.238632 
z"/>
<path fill="#EC7F73" opacity="1.000000" stroke="none" 
	d="
M106.057999,111.421936 
	C106.535446,111.023521 106.940948,110.990173 108.123444,110.976242 
	C115.954605,110.975945 123.008911,110.923058 130.062851,110.953201 
	C132.792114,110.964859 135.066086,110.576828 135.345337,106.933014 
	C135.878769,106.636353 136.087662,106.509750 136.296555,106.383148 
	C136.878418,110.968040 134.847382,112.423645 130.318497,112.291611 
	C125.291512,112.145058 120.239021,112.873375 114.623238,113.603867 
	C111.420387,113.996544 108.791939,114.006126 106.163483,114.015709 
	C106.104340,113.272804 106.045197,112.529892 106.057999,111.421936 
z"/>
<path fill="#728CB8" opacity="1.000000" stroke="none" 
	d="
M44.899036,66.370316 
	C47.757519,66.674896 50.454773,67.336388 53.574463,67.998421 
	C53.741089,69.463524 53.485275,70.928085 52.646137,72.714874 
	C49.415874,72.708389 46.768944,72.379692 44.122009,72.050995 
	C44.327274,70.276405 44.532539,68.501808 44.899036,66.370316 
z"/>
<path fill="#77BB90" opacity="1.000000" stroke="none" 
	d="
M61.747986,93.763390 
	C60.197449,94.521988 58.552116,95.832497 56.856255,95.901527 
	C50.581539,96.156914 44.290138,96.002472 37.613583,95.593781 
	C38.715919,94.797844 40.203453,94.105751 41.704525,94.075027 
	C48.329414,93.939362 54.958202,93.994156 61.585579,93.979980 
	C61.585579,93.979980 61.629993,93.745461 61.747986,93.763390 
z"/>
<path fill="#DD3B77" opacity="1.000000" stroke="none" 
	d="
M55.119919,124.404518 
	C55.715889,120.145401 58.855335,121.247375 61.806129,121.023689 
	C63.226055,122.213249 64.206886,123.402863 65.187714,124.592468 
	C65.024200,125.003380 64.860680,125.414299 64.697166,125.825211 
	C61.560513,125.466064 58.423862,125.106918 55.119919,124.404518 
z"/>
<path fill="#4FA7A8" opacity="1.000000" stroke="none" 
	d="
M55.308147,61.774071 
	C52.423229,61.719139 49.702568,61.369793 46.568340,61.031914 
	C45.972317,60.350796 45.789860,59.658211 45.554928,58.611725 
	C48.909721,57.824970 52.316990,57.392128 56.149132,56.946884 
	C56.206806,58.449539 55.839607,59.964600 55.308147,61.774071 
z"/>
<path fill="#F67A70" opacity="1.000000" stroke="none" 
	d="
M81.035156,115.603531 
	C78.119522,116.582466 75.011833,117.250488 71.528778,118.050514 
	C71.116417,116.734085 71.079422,115.285660 71.508820,113.392685 
	C74.587730,112.625954 77.200233,112.303772 79.812744,111.981590 
	C80.156189,113.085266 80.499641,114.188934 81.035156,115.603531 
z"/>
<path fill="#8F76B1" opacity="1.000000" stroke="none" 
	d="
M43.974243,72.360794 
	C46.768944,72.379692 49.415874,72.708389 52.480530,73.051071 
	C52.629871,74.479141 52.361500,75.893227 51.562096,77.648643 
	C48.067772,77.682068 45.104481,77.374176 42.141193,77.066269 
	C42.702953,75.601044 43.264713,74.135818 43.974243,72.360794 
z"/>
<path fill="#55B0B2" opacity="1.000000" stroke="none" 
	d="
M106.957626,60.871391 
	C108.205933,55.242828 112.930458,56.679493 117.111801,56.114647 
	C117.299973,57.604042 117.037804,59.075706 116.086998,60.820839 
	C112.584785,61.020000 109.771202,60.945694 106.957626,60.871391 
z"/>
<path fill="#F1AB71" opacity="1.000000" stroke="none" 
	d="
M43.175774,107.760719 
	C40.092369,108.511230 37.008961,109.261742 33.519989,110.025391 
	C33.416191,108.632301 33.717957,107.226059 34.486530,105.428360 
	C37.880657,104.618752 40.807972,104.200607 43.797310,104.122894 
	C43.631477,105.562447 43.403625,106.661583 43.175774,107.760719 
z"/>
<path fill="#92CFAE" opacity="1.000000" stroke="none" 
	d="
M114.801910,51.378975 
	C109.604187,51.835571 104.271690,52.158535 98.960762,51.945004 
	C95.572998,51.808804 93.269234,52.859837 91.468147,56.023342 
	C91.418259,54.435638 91.683983,52.660034 91.898743,51.224949 
	C98.146782,50.814606 104.127831,50.337730 110.118340,50.087284 
	C111.622047,50.024418 113.156143,50.688263 114.801910,51.378975 
z"/>
<path fill="#D82864" opacity="1.000000" stroke="none" 
	d="
M75.169693,94.152550 
	C73.694023,95.516075 72.491470,96.646309 70.528770,98.490974 
	C69.001038,96.701263 67.365379,94.785118 64.829895,91.814835 
	C69.025757,91.814835 72.196114,91.805763 75.363266,91.902267 
	C75.410217,91.903694 75.417175,93.217781 75.169693,94.152550 
z"/>
<path fill="#9A67AA" opacity="1.000000" stroke="none" 
	d="
M124.376785,81.013084 
	C125.222435,79.440880 126.068085,77.868683 127.642853,76.098557 
	C130.927170,75.951607 133.482376,76.002586 136.037567,76.053558 
	C135.001984,77.389946 133.966415,78.726326 132.186768,80.187302 
	C129.087402,80.545624 126.732094,80.779350 124.376785,81.013084 
z"/>
<path fill="#5BA0B8" opacity="1.000000" stroke="none" 
	d="
M106.751526,60.893623 
	C109.771202,60.945694 112.584785,61.020000 115.871155,61.123978 
	C114.530457,62.792675 112.716965,64.431702 110.549988,66.084114 
	C108.917519,65.201569 107.638542,64.305634 106.112244,63.173805 
	C105.898888,62.491283 105.932846,62.044655 106.049255,61.270554 
	C106.131714,60.943077 106.545418,60.915859 106.751526,60.893623 
z"/>
<path fill="#F6A06E" opacity="1.000000" stroke="none" 
	d="
M79.871979,111.578568 
	C77.200233,112.303772 74.587730,112.625954 71.582947,112.962662 
	C71.059349,111.621277 70.928024,110.265381 70.903534,108.520142 
	C73.672279,108.071686 76.334198,108.012573 79.437622,107.929436 
	C79.896492,108.995461 79.913857,110.085510 79.871979,111.578568 
z"/>
<path fill="#F37E78" opacity="1.000000" stroke="none" 
	d="
M105.980209,114.367294 
	C108.791939,114.006126 111.420387,113.996544 114.487946,113.981148 
	C114.927048,113.975327 115.112030,114.343765 115.080124,114.544456 
	C112.426079,116.607552 109.803955,118.469948 107.175171,120.697800 
	C107.160339,121.472481 107.152168,121.881721 107.160347,122.598854 
	C104.328468,120.579926 103.983261,117.831299 105.980209,114.367294 
z"/>
<path fill="#C6A77C" opacity="1.000000" stroke="none" 
	d="
M91.389816,100.170525 
	C95.046707,99.805206 98.980888,99.587257 103.266930,99.202332 
	C104.087509,105.888046 99.095818,103.508392 95.248703,103.338516 
	C94.579544,102.331154 94.314285,101.732162 94.049034,101.133171 
	C93.255058,100.861412 92.461075,100.589653 91.389816,100.170525 
z"/>
<path fill="#649BBA" opacity="1.000000" stroke="none" 
	d="
M134.578659,63.102188 
	C137.005447,63.556950 139.151321,64.180733 141.648621,64.912811 
	C141.211945,66.611565 140.423813,68.202011 139.169037,69.736801 
	C136.705597,68.732956 134.708771,67.784744 132.711945,66.836540 
	C133.240540,65.648094 133.769135,64.459648 134.578659,63.102188 
z"/>
<path fill="#B64D9B" opacity="1.000000" stroke="none" 
	d="
M124.184158,81.255592 
	C126.732094,80.779350 129.087402,80.545624 131.852615,80.197029 
	C133.280319,83.436157 132.066360,85.123550 128.531693,85.098953 
	C126.590065,85.085442 124.648270,85.096527 121.921562,85.096527 
	C122.819489,83.535576 123.405510,82.516838 124.184158,81.255592 
z"/>
<path fill="#837DB1" opacity="1.000000" stroke="none" 
	d="
M136.289932,75.846642 
	C133.482376,76.002586 130.927170,75.951607 127.883011,75.873253 
	C127.998894,74.637253 128.603729,73.428627 129.956360,72.066429 
	C133.117722,71.959503 135.531296,72.006157 137.944870,72.052811 
	C137.477341,73.248444 137.009811,74.444077 136.289932,75.846642 
z"/>
<path fill="#BAB49E" opacity="1.000000" stroke="none" 
	d="
M118.191727,105.926575 
	C118.104111,105.565376 118.016487,105.204178 117.885056,104.566650 
	C123.939568,104.528755 130.037903,104.767181 135.860794,105.479065 
	C135.345947,106.007401 135.106537,106.062286 134.414154,106.075394 
	C128.704697,105.997948 123.448219,105.962265 118.191727,105.926575 
z"/>
<path fill="#A55FA9" opacity="1.000000" stroke="none" 
	d="
M42.061935,77.461807 
	C45.104481,77.374176 48.067772,77.682068 51.444294,77.994186 
	C51.755508,78.845947 51.653492,79.693504 50.945694,80.788528 
	C47.604832,81.052429 44.869755,81.068840 42.134678,81.085258 
	C42.084011,80.009285 42.033344,78.933304 42.061935,77.461807 
z"/>
<path fill="#D13175" opacity="1.000000" stroke="none" 
	d="
M30.741550,124.671928 
	C33.610146,123.351082 36.466663,122.303253 39.673374,121.064301 
	C39.636314,125.980972 37.841122,126.767456 30.741550,124.671928 
z"/>
<path fill="#B753A0" opacity="1.000000" stroke="none" 
	d="
M41.949306,81.399414 
	C44.869755,81.068840 47.604832,81.052429 50.752350,81.047585 
	C51.523010,85.926247 48.030262,85.239647 45.131371,85.090485 
	C43.190292,84.990608 40.257854,85.437263 41.949306,81.399414 
z"/>
<path fill="#8F6BAA" opacity="1.000000" stroke="none" 
	d="
M82.404068,79.834869 
	C79.483627,79.070648 76.805359,78.079079 73.754448,76.888702 
	C73.560188,75.968788 73.738571,75.247673 74.403214,74.441116 
	C77.789505,74.576385 80.689560,74.797089 83.589607,75.017792 
	C83.275162,76.547699 82.960709,78.077606 82.404068,79.834869 
z"/>
<path fill="#708FBA" opacity="1.000000" stroke="none" 
	d="
M138.077942,71.815582 
	C135.531296,72.006157 133.117722,71.959503 130.252686,71.884491 
	C130.590500,70.310120 131.379761,68.764114 132.440491,67.027328 
	C134.708771,67.784744 136.705597,68.732956 138.926987,69.973221 
	C138.838043,70.702965 138.524536,71.140656 138.077942,71.815582 
z"/>
<path fill="#DCE9CE" opacity="1.000000" stroke="none" 
	d="
M61.266075,93.641663 
	C54.958202,93.994156 48.329414,93.939362 41.704525,94.075027 
	C40.203453,94.105751 38.715919,94.797844 37.149834,95.587021 
	C36.933872,96.395355 36.790237,96.802170 36.539551,97.514763 
	C36.432503,97.820541 36.030243,97.753006 36.030243,97.753006 
	C36.030243,97.753006 35.623119,97.778465 35.425438,97.838760 
	C34.648811,94.065178 36.215855,92.529411 40.143501,92.729858 
	C47.069572,93.083328 54.011364,93.128883 61.266075,93.641663 
z"/>
<path fill="#CED5BD" opacity="1.000000" stroke="none" 
	d="
M147.540558,51.024643 
	C140.943008,51.365406 134.482834,51.525810 128.039627,51.265804 
	C124.491356,51.122616 122.373184,52.344517 121.192795,55.964005 
	C120.325333,51.594353 121.873970,49.497486 126.939240,49.930962 
	C133.825104,50.520241 140.767090,50.453960 147.540558,51.024643 
z"/>
<path fill="#E0ECD1" opacity="1.000000" stroke="none" 
	d="
M140.049500,94.023254 
	C130.244812,94.367210 120.554787,94.224144 110.395203,94.120880 
	C109.861542,93.806747 109.797440,93.452805 109.733337,93.098862 
	C119.876945,93.244652 130.020554,93.390434 140.049500,94.023254 
z"/>
<path fill="#7B7DB3" opacity="1.000000" stroke="none" 
	d="
M83.711761,74.661545 
	C80.689560,74.797089 77.789505,74.576385 74.528580,74.222168 
	C73.846092,73.591583 73.524498,73.094528 73.127777,72.308907 
	C76.168457,71.772484 79.284241,71.524620 82.756500,71.071335 
	C83.353279,72.012383 83.593605,73.158836 83.711761,74.661545 
z"/>
<path fill="#C92860" opacity="1.000000" stroke="none" 
	d="
M93.193756,66.981979 
	C92.900566,69.459023 92.662979,71.566582 92.327118,74.545959 
	C90.995316,73.722527 89.523506,73.295303 89.019897,72.351463 
	C88.602028,71.568321 88.949066,69.658043 89.624481,69.169418 
	C90.806709,68.314163 90.084846,64.498680 93.193756,66.981979 
z"/>
<path fill="#906FAE" opacity="1.000000" stroke="none" 
	d="
M104.885857,75.343880 
	C107.879845,75.044914 110.856285,75.013382 114.270721,74.985481 
	C114.529892,75.805161 114.351059,76.621208 114.032104,77.720093 
	C111.046532,77.704353 108.201073,77.405777 104.989761,76.883415 
	C104.705376,76.310188 104.786842,75.960747 104.885857,75.343880 
z"/>
<path fill="#DEC379" opacity="1.000000" stroke="none" 
	d="
M43.735287,103.782471 
	C40.807972,104.200607 37.880657,104.618752 34.524555,105.053329 
	C34.340446,104.276329 34.585129,103.482887 34.943832,102.369690 
	C37.763218,101.989090 40.468575,101.928238 43.650543,102.184448 
	C43.996529,102.928505 43.865906,103.355484 43.735287,103.782471 
z"/>
<path fill="#C9D4BB" opacity="1.000000" stroke="none" 
	d="
M64.912521,55.571602 
	C64.874809,55.962433 64.387520,56.028858 64.145195,56.070057 
	C63.869911,50.033066 63.870167,49.991898 69.296181,50.025810 
	C73.894127,50.054546 78.491386,50.193069 83.345360,50.590485 
	C78.883598,51.030910 74.165817,51.243069 69.447098,51.266541 
	C66.698959,51.280212 65.097984,52.321579 64.912521,55.571602 
z"/>
<path fill="#8E2162" opacity="1.000000" stroke="none" 
	d="
M120.252670,125.641624 
	C122.681572,125.414276 125.567612,125.316086 128.821457,125.364677 
	C126.362778,125.597900 123.536293,125.684349 120.252670,125.641624 
z"/>
<path fill="#B3B483" opacity="1.000000" stroke="none" 
	d="
M94.021484,101.400017 
	C94.314285,101.732162 94.579544,102.331154 94.828934,103.183640 
	C94.540024,102.847038 94.266983,102.256950 94.021484,101.400017 
z"/>
<path fill="#8E2162" opacity="1.000000" stroke="none" 
	d="
M111.111145,125.493088 
	C111.719414,125.288834 112.637901,125.255119 113.874969,125.363800 
	C113.269485,125.558670 112.345421,125.611145 111.111145,125.493088 
z"/>
<path fill="#8E2162" opacity="1.000000" stroke="none" 
	d="
M132.092255,125.622864 
	C132.407745,125.414268 133.015244,125.320312 133.914017,125.347961 
	C133.598282,125.558884 132.991287,125.648201 132.092255,125.622864 
z"/>
<path fill="#EF5178" opacity="1.000000" stroke="none" 
	d="
M41.241730,115.839516 
	C41.268681,115.713852 41.535728,115.453239 42.080196,115.110527 
	C42.065689,115.253815 41.773754,115.479195 41.241730,115.839516 
z"/>
<path fill="#F38070" opacity="1.000000" stroke="none" 
	d="
M62.303719,111.873207 
	C62.199287,111.643349 62.378227,111.438629 62.809799,111.215073 
	C62.977211,111.467316 62.818764,111.701347 62.303719,111.873207 
z"/>
<path fill="#EBB975" opacity="1.000000" stroke="none" 
	d="
M134.867126,106.117165 
	C135.106537,106.062286 135.345947,106.007401 135.948578,105.887924 
	C136.311798,105.823318 136.425766,106.113907 136.361160,106.248528 
	C136.087662,106.509750 135.878769,106.636353 135.312119,106.685318 
	C134.954361,106.607674 134.867126,106.117165 134.867126,106.117165 
z"/>
<path fill="#311E3A" opacity="1.000000" stroke="none" 
	d="
M43.797310,104.122894 
	C43.865906,103.355484 43.996529,102.928505 44.103203,102.161362 
	C48.229149,99.277512 53.759811,99.572945 56.844425,102.836746 
	C56.719246,104.539551 56.412247,105.898972 55.924561,107.585663 
	C55.743870,107.912918 55.407539,107.918198 54.843391,108.098831 
	C50.858727,108.501381 47.438206,108.723297 44.017689,108.945221 
	C43.882442,108.639061 43.747192,108.332901 43.393860,107.893730 
	C43.403625,106.661583 43.631477,105.562447 43.797310,104.122894 
z"/>
<path fill="#EFB775" opacity="1.000000" stroke="none" 
	d="
M44.361809,109.148788 
	C47.438206,108.723297 50.858727,108.501381 54.695015,108.178024 
	C51.642498,108.501831 48.174217,108.927094 44.361809,109.148788 
z"/>
<path fill="#F5A76D" opacity="1.000000" stroke="none" 
	d="
M134.414154,106.075394 
	C134.867126,106.117165 134.954361,106.607674 134.987579,106.855362 
	C135.066086,110.576828 132.792114,110.964859 130.062851,110.953201 
	C123.008911,110.923058 115.954605,110.975945 108.428078,110.959534 
	C109.407417,109.893524 110.757263,108.651054 112.339256,107.893127 
	C113.947281,107.122719 115.784149,106.829971 117.856277,106.127319 
	C123.448219,105.962265 128.704697,105.997948 134.414154,106.075394 
z"/>
</svg>